<svg width="20" height="19" viewBox="0 0 20 19" fill="none" xmlns="http://www.w3.org/2000/svg">
<path fill-rule="evenodd" clip-rule="evenodd" d="M6.22081 0.555C7.19831 0.51 7.50998 0.5 9.99998 0.5C12.49 0.5 12.8016 0.510833 13.7783 0.555C14.755 0.599167 15.4216 0.755 16.005 0.980833C16.6158 1.21167 17.17 1.5725 17.6283 2.03917C18.095 2.49667 18.455 3.05 18.685 3.66167C18.9116 4.245 19.0666 4.91167 19.1116 5.88667C19.1566 6.86583 19.1666 7.1775 19.1666 9.66667C19.1666 12.1567 19.1558 12.4683 19.1116 13.4458C19.0675 14.4208 18.9116 15.0875 18.685 15.6708C18.455 16.2826 18.0944 16.8368 17.6283 17.295C17.17 17.7617 16.6158 18.1217 16.005 18.3517C15.4216 18.5783 14.755 18.7333 13.78 18.7783C12.8016 18.8233 12.49 18.8333 9.99998 18.8333C7.50998 18.8333 7.19831 18.8225 6.22081 18.7783C5.24581 18.7342 4.57915 18.5783 3.99581 18.3517C3.38408 18.1216 2.82983 17.761 2.37165 17.295C1.9053 16.8372 1.54441 16.2832 1.31415 15.6717C1.08831 15.0883 0.933313 14.4217 0.888313 13.4467C0.843313 12.4675 0.833313 12.1558 0.833313 9.66667C0.833313 7.17667 0.844146 6.865 0.888313 5.88833C0.93248 4.91167 1.08831 4.245 1.31415 3.66167C1.54475 3.05007 1.90591 2.49609 2.37248 2.03833C2.83001 1.57208 3.38371 1.2112 3.99498 0.980833C4.57831 0.755 5.24498 0.6 6.21998 0.555H6.22081ZM13.7041 2.205C12.7375 2.16083 12.4475 2.15167 9.99998 2.15167C7.55248 2.15167 7.26248 2.16083 6.29581 2.205C5.40165 2.24583 4.91665 2.395 4.59331 2.52083C4.16581 2.6875 3.85998 2.885 3.53915 3.20583C3.23502 3.50171 3.00096 3.8619 2.85415 4.26C2.72831 4.58333 2.57915 5.06833 2.53831 5.9625C2.49415 6.92917 2.48498 7.21917 2.48498 9.66667C2.48498 12.1142 2.49415 12.4042 2.53831 13.3708C2.57915 14.265 2.72831 14.75 2.85415 15.0733C3.00081 15.4708 3.23498 15.8317 3.53915 16.1275C3.83498 16.4317 4.19581 16.6658 4.59331 16.8125C4.91665 16.9383 5.40165 17.0875 6.29581 17.1283C7.26248 17.1725 7.55165 17.1817 9.99998 17.1817C12.4483 17.1817 12.7375 17.1725 13.7041 17.1283C14.5983 17.0875 15.0833 16.9383 15.4066 16.8125C15.8341 16.6458 16.14 16.4483 16.4608 16.1275C16.765 15.8317 16.9991 15.4708 17.1458 15.0733C17.2716 14.75 17.4208 14.265 17.4616 13.3708C17.5058 12.4042 17.515 12.1142 17.515 9.66667C17.515 7.21917 17.5058 6.92917 17.4616 5.9625C17.4208 5.06833 17.2716 4.58333 17.1458 4.26C16.9791 3.8325 16.7816 3.52667 16.4608 3.20583C16.1649 2.90173 15.8047 2.66768 15.4066 2.52083C15.0833 2.395 14.5983 2.24583 13.7041 2.205ZM8.82915 12.4925C9.48303 12.7647 10.2111 12.8014 10.8891 12.5964C11.567 12.3914 12.1528 11.9574 12.5463 11.3685C12.9398 10.7796 13.1167 10.0724 13.0467 9.36759C12.9767 8.66278 12.6642 8.00414 12.1625 7.50417C11.8427 7.18456 11.456 6.93984 11.0303 6.78762C10.6045 6.6354 10.1503 6.57947 9.70039 6.62385C9.25045 6.66823 8.81594 6.81181 8.42815 7.04428C8.04036 7.27674 7.70893 7.59229 7.45773 7.96821C7.20653 8.34413 7.0418 8.77107 6.97541 9.2183C6.90902 9.66553 6.94261 10.1219 7.07376 10.5546C7.20492 10.9873 7.43038 11.3855 7.73391 11.7206C8.03745 12.0557 8.4115 12.3193 8.82915 12.4925ZM6.66831 6.335C7.10583 5.89748 7.62525 5.55042 8.1969 5.31363C8.76854 5.07685 9.38123 4.95498 9.99998 4.95498C10.6187 4.95498 11.2314 5.07685 11.8031 5.31363C12.3747 5.55042 12.8941 5.89748 13.3316 6.335C13.7692 6.77252 14.1162 7.29193 14.353 7.86358C14.5898 8.43523 14.7117 9.04792 14.7117 9.66667C14.7117 10.2854 14.5898 10.8981 14.353 11.4698C14.1162 12.0414 13.7692 12.5608 13.3316 12.9983C12.448 13.8819 11.2496 14.3784 9.99998 14.3784C8.75036 14.3784 7.55193 13.8819 6.66831 12.9983C5.7847 12.1147 5.28829 10.9163 5.28829 9.66667C5.28829 8.41705 5.7847 7.21861 6.66831 6.335ZM15.7566 5.65667C15.8651 5.55439 15.9519 5.4314 16.0119 5.29498C16.0719 5.15856 16.104 5.01147 16.1062 4.86244C16.1083 4.71341 16.0806 4.56546 16.0245 4.42734C15.9685 4.28923 15.8853 4.16376 15.7799 4.05837C15.6746 3.95297 15.5491 3.8698 15.411 3.81376C15.2729 3.75773 15.1249 3.72998 14.9759 3.73215C14.8268 3.73433 14.6798 3.76638 14.5433 3.82641C14.4069 3.88645 14.2839 3.97325 14.1816 4.08167C13.9827 4.29252 13.8738 4.5726 13.8781 4.86244C13.8823 5.15228 13.9993 5.42907 14.2043 5.63404C14.4092 5.83901 14.686 5.95602 14.9759 5.96025C15.2657 5.96447 15.5458 5.85558 15.7566 5.65667Z" fill="#DADBD9"/>
</svg>
