<svg width="30" height="30" viewBox="0 0 30 30" fill="none" xmlns="http://www.w3.org/2000/svg">
<path d="M23.0875 21.0375L23.575 24.9875C23.7 26.025 22.5875 26.75 21.7 26.2125L16.4625 23.1C15.8875 23.1 15.325 23.0625 14.775 22.9875C15.7 21.9 16.25 20.525 16.25 19.0375C16.25 15.4875 13.175 12.6125 9.375 12.6125C7.925 12.6125 6.58751 13.025 5.47501 13.75C5.43751 13.4375 5.425 13.125 5.425 12.8C5.425 7.11249 10.3625 2.5 16.4625 2.5C22.5625 2.5 27.5 7.11249 27.5 12.8C27.5 16.175 25.7625 19.1625 23.0875 21.0375Z" stroke="#F8F8F7" stroke-width="1.5" stroke-linecap="round" stroke-linejoin="round"/>
<path d="M16.25 19.0372C16.25 20.5247 15.7 21.8998 14.775 22.9873C13.5375 24.4873 11.575 25.4498 9.375 25.4498L6.1125 27.3872C5.5625 27.7247 4.8625 27.2623 4.9375 26.6248L5.25 24.1623C3.575 22.9998 2.5 21.1372 2.5 19.0372C2.5 16.8372 3.67501 14.8998 5.47501 13.7498C6.58751 13.0248 7.925 12.6123 9.375 12.6123C13.175 12.6123 16.25 15.4872 16.25 19.0372Z" stroke="#F8F8F7" stroke-width="1.5" stroke-linecap="round" stroke-linejoin="round"/>
</svg>
