<svg width="19" height="25" viewBox="0 0 19 25" fill="none" xmlns="http://www.w3.org/2000/svg">
<path d="M5.4805 1.09877L4.405 1.42277C3.44737 1.71156 2.59216 2.26791 1.94004 3.02633C1.28792 3.78475 0.866017 4.71367 0.724001 5.70377C0.278501 8.80577 1.2745 12.4328 3.676 16.5923C6.0715 20.7413 8.7085 23.4143 11.611 24.5843C12.5436 24.9601 13.5645 25.0603 14.5524 24.8728C15.5402 24.6854 16.4534 24.2182 17.1835 23.5268L17.9965 22.7558C18.5244 22.2561 18.853 21.5818 18.9211 20.8581C18.9893 20.1345 18.7924 19.4107 18.367 18.8213L16.333 16.0013C16.058 15.6206 15.6708 15.3354 15.2256 15.1859C14.7804 15.0363 14.2996 15.0298 13.8505 15.1673L10.774 16.1078L10.6945 16.1228C10.3555 16.1723 9.5725 15.4388 8.5975 13.7498C7.5775 11.9828 7.3675 10.9493 7.648 10.6823L9.2125 9.22277C9.78462 8.68946 10.1754 7.99043 10.3301 7.22375C10.4848 6.45706 10.3956 5.66118 10.075 4.94777L9.082 2.74127C8.78341 2.07728 8.25355 1.54454 7.59119 1.24234C6.92884 0.940139 6.1777 0.889112 5.4805 1.09877ZM7.7155 3.35627L8.7055 5.56277C8.8983 5.99062 8.95222 6.46812 8.85967 6.92818C8.76712 7.38825 8.53275 7.80776 8.1895 8.12777L6.6205 9.58877C5.617 10.5398 5.95 12.1628 7.3 14.4998C8.569 16.6988 9.727 17.7848 10.972 17.5958L11.158 17.5568L14.29 16.6013C14.4397 16.5553 14.6001 16.5573 14.7486 16.6071C14.897 16.6568 15.0262 16.7519 15.118 16.8788L17.152 19.6988C17.365 19.9934 17.4637 20.3555 17.4298 20.7175C17.3958 21.0795 17.2315 21.4168 16.9675 21.6668L16.153 22.4378C15.6315 22.9313 14.9793 23.2648 14.2739 23.3985C13.5684 23.5323 12.8394 23.4607 12.1735 23.1923C9.6265 22.1663 7.219 19.7258 4.9765 15.8423C2.728 11.9498 1.8175 8.63927 2.209 5.91677C2.31034 5.20941 2.61168 4.54574 3.07753 4.00389C3.54338 3.46203 4.15435 3.06456 4.8385 2.85827L5.914 2.53427C6.26269 2.42949 6.63758 2.45511 6.96877 2.60636C7.29996 2.7576 7.56483 3.02414 7.714 3.35627H7.7155Z" fill="#F8F8F7"/>
</svg>
