<svg width="14" height="13" viewBox="0 0 14 13" fill="none" xmlns="http://www.w3.org/2000/svg">
<path d="M6.14595 1.0375C6.43924 0.103712 7.76075 0.103713 8.05404 1.03751L8.8333 3.5185C8.9642 3.93528 9.35049 4.21885 9.78734 4.21885H12.3793C13.3398 4.21885 13.7479 5.44115 12.9801 6.01823L10.8255 7.63762C10.4868 7.89216 10.3453 8.33248 10.4723 8.73667L11.2814 11.3127C11.5726 12.24 10.5035 12.9958 9.72651 12.4118L7.70081 10.8893C7.34492 10.6218 6.85507 10.6218 6.49918 10.8893L4.47347 12.4118C3.69649 12.9958 2.62735 12.24 2.91861 11.3127L3.72772 8.73667C3.85467 8.33248 3.71316 7.89216 3.37449 7.63762L1.21989 6.01823C0.452084 5.44115 0.860212 4.21885 1.82071 4.21885H4.41265C4.8495 4.21885 5.23579 3.93528 5.36669 3.5185L6.14595 1.0375Z" fill="#6BB35D"/>
</svg>
