<svg width="13" height="13" viewBox="0 0 13 13" fill="none" xmlns="http://www.w3.org/2000/svg">
<path d="M6.77702 1.18733L7.55628 3.66833C7.75263 4.2935 8.33207 4.71885 8.98735 4.71885H11.5793C12.0595 4.71885 12.2636 5.33 11.8797 5.61854L9.72509 7.23793C9.2171 7.61974 9.00482 8.28022 9.19525 8.88649L10.0044 11.4626C10.15 11.9262 9.61542 12.3041 9.22693 12.0121L7.20122 10.4896C6.66739 10.0883 5.93261 10.0883 5.39878 10.4896L3.37307 12.0121C2.98458 12.3041 2.45001 11.9262 2.59564 11.4626L3.40475 8.88649C3.59518 8.28022 3.3829 7.61974 2.87491 7.23793L0.720305 5.61854C0.3364 5.33 0.540465 4.71885 1.02071 4.71885H3.61265C4.26793 4.71885 4.84736 4.2935 5.04372 3.66833L5.82298 1.18733C5.96962 0.720438 6.63038 0.720436 6.77702 1.18733Z" stroke="#6BB35D"/>
</svg>
