<svg width="20" height="21" viewBox="0 0 20 21" fill="none" xmlns="http://www.w3.org/2000/svg">
<path d="M13.0694 0.666504H6.93002C1.32752 0.666504 -0.000610352 1.99463 -0.000610352 7.59713V13.7365C-0.000610352 19.339 1.32752 20.6671 6.93002 20.6671H13.0694C18.6719 20.6671 20 19.339 20 13.7365V7.59713C20 1.99463 18.6588 0.666504 13.0694 0.666504ZM16.1456 14.934H14.6938C14.1438 14.934 13.9744 14.4978 12.985 13.4953C12.1256 12.6621 11.745 12.5515 11.5331 12.5515C11.2338 12.5515 11.1488 12.6359 11.1488 13.0465V14.3584C11.1488 14.7103 11.0381 14.9215 10.1069 14.9215C8.56689 14.9215 6.85814 13.9903 5.66001 12.2553C3.85314 9.71275 3.35876 7.80838 3.35876 7.41463C3.35876 7.20275 3.44314 7.00463 3.85001 7.00463H5.30501C5.67314 7.00463 5.81314 7.174 5.95626 7.56775C6.67564 9.64463 7.87377 11.464 8.36814 11.464C8.55064 11.464 8.63501 11.3796 8.63501 10.914V8.769C8.57939 7.77963 8.05877 7.69463 8.05877 7.34338C8.05877 7.174 8.19876 7.00463 8.42314 7.00463H10.7113C11.0206 7.00463 11.1344 7.174 11.1344 7.53838V10.4321C11.1344 10.7446 11.2744 10.8553 11.3588 10.8553C11.5413 10.8553 11.6975 10.7446 12.0356 10.4059C13.0806 9.234 13.8294 7.42713 13.8294 7.42713C13.9269 7.21525 14.0963 7.01713 14.4644 7.01713H15.9194C16.3556 7.01713 16.4531 7.2415 16.3556 7.554C16.1731 8.40025 14.3925 10.9134 14.3925 10.9134C14.2394 11.1671 14.1806 11.2778 14.3925 11.5609C14.5488 11.7728 15.0569 12.2121 15.395 12.6059C16.0169 13.3121 16.495 13.9046 16.6225 14.3146C16.7656 14.7215 16.5544 14.9334 16.1438 14.9334L16.1456 14.934Z" fill="#DADBD9"/>
</svg>
