<svg width="20" height="24" viewBox="0 0 20 24" fill="none" xmlns="http://www.w3.org/2000/svg">
<path d="M12.6432 16.1979V18.9453C12.6432 19.5269 12.474 19.8177 12.1354 19.8177C11.9358 19.8177 11.7405 19.7222 11.5495 19.5312V15.612C11.7405 15.421 11.9358 15.3255 12.1354 15.3255C12.474 15.3255 12.6432 15.6163 12.6432 16.1979ZM17.0443 16.2109V16.8099H15.8724V16.2109C15.8724 15.6207 16.0677 15.3255 16.4583 15.3255C16.849 15.3255 17.0443 15.6207 17.0443 16.2109ZM4.46615 13.3724H5.85938V12.1484H1.79688V13.3724H3.16406V20.7813H4.46615V13.3724ZM8.21615 20.7813H9.375V14.349H8.21615V19.2708C7.95573 19.6354 7.70833 19.8177 7.47396 19.8177C7.31771 19.8177 7.22656 19.7266 7.20052 19.5443C7.19184 19.5182 7.1875 19.3663 7.1875 19.0885V14.349H6.02865V19.4401C6.02865 19.8655 6.06337 20.1823 6.13281 20.3906C6.23698 20.7118 6.48872 20.8724 6.88802 20.8724C7.30469 20.8724 7.7474 20.6076 8.21615 20.0781V20.7813ZM13.8021 18.8542V16.2891C13.8021 15.6554 13.763 15.2257 13.6849 15C13.5373 14.5139 13.2292 14.2708 12.7604 14.2708C12.3264 14.2708 11.9227 14.5052 11.5495 14.974V12.1484H10.3906V20.7813H11.5495V20.1563C11.9401 20.6337 12.3438 20.8724 12.7604 20.8724C13.2292 20.8724 13.5373 20.6337 13.6849 20.1563C13.763 19.9219 13.8021 19.4878 13.8021 18.8542ZM18.2031 18.724V18.5547H17.0182C17.0182 18.9974 17.0095 19.2622 16.9922 19.349C16.9314 19.6615 16.7578 19.8177 16.4714 19.8177C16.072 19.8177 15.8724 19.5182 15.8724 18.9193V17.7865H18.2031V16.4453C18.2031 15.7595 18.0859 15.2561 17.8516 14.9349C17.513 14.4922 17.053 14.2708 16.4714 14.2708C15.8811 14.2708 15.4167 14.4922 15.0781 14.9349C14.8351 15.2561 14.7135 15.7595 14.7135 16.4453V18.6979C14.7135 19.3837 14.8394 19.8872 15.0911 20.2083C15.4297 20.651 15.8984 20.8724 16.4974 20.8724C17.1224 20.8724 17.5911 20.6424 17.9036 20.1823C18.0599 19.9479 18.151 19.7135 18.1771 19.4792C18.1944 19.401 18.2031 19.1493 18.2031 18.724ZM10.2865 6.83594V4.10156C10.2865 3.5026 10.0998 3.20313 9.72656 3.20313C9.3533 3.20313 9.16667 3.5026 9.16667 4.10156V6.83594C9.16667 7.44358 9.3533 7.7474 9.72656 7.7474C10.0998 7.7474 10.2865 7.44358 10.2865 6.83594ZM19.6484 16.6146C19.6484 18.6458 19.5356 20.1649 19.3099 21.1719C19.1884 21.684 18.9366 22.1137 18.5547 22.4609C18.1727 22.8082 17.73 23.0078 17.2266 23.0599C15.6293 23.2422 13.2205 23.3333 10 23.3333C6.77951 23.3333 4.37066 23.2422 2.77344 23.0599C2.26997 23.0078 1.82509 22.8082 1.4388 22.4609C1.05252 22.1137 0.802951 21.684 0.690104 21.1719C0.46441 20.1997 0.351562 18.6806 0.351562 16.6146C0.351562 14.5833 0.46441 13.0642 0.690104 12.0573C0.811632 11.5451 1.06337 11.1155 1.44531 10.7682C1.82726 10.421 2.27431 10.217 2.78646 10.1563C4.375 9.98264 6.77951 9.89583 10 9.89583C13.2205 9.89583 15.6293 9.98264 17.2266 10.1563C17.73 10.217 18.1749 10.421 18.5612 10.7682C18.9475 11.1155 19.197 11.5451 19.3099 12.0573C19.5356 13.0295 19.6484 14.5486 19.6484 16.6146ZM6.65365 0H7.98177L6.40625 5.19531V8.72396H5.10417V5.19531C4.98264 4.55295 4.71788 3.63281 4.3099 2.4349C3.98872 1.5408 3.7066 0.729167 3.46354 0H4.84375L5.76823 3.42448L6.65365 0ZM11.4714 4.33594V6.61458C11.4714 7.31771 11.3498 7.82986 11.1068 8.15104C10.7769 8.59375 10.3168 8.8151 9.72656 8.8151C9.14497 8.8151 8.68924 8.59375 8.35938 8.15104C8.11632 7.82118 7.99479 7.30903 7.99479 6.61458V4.33594C7.99479 3.64149 8.11632 3.13368 8.35938 2.8125C8.68924 2.36979 9.14497 2.14844 9.72656 2.14844C10.3168 2.14844 10.7769 2.36979 11.1068 2.8125C11.3498 3.13368 11.4714 3.64149 11.4714 4.33594ZM15.8333 2.22656V8.72396H14.6484V8.00781C14.1884 8.54601 13.7413 8.8151 13.3073 8.8151C12.908 8.8151 12.6519 8.65451 12.5391 8.33333C12.4696 8.125 12.4349 7.79948 12.4349 7.35677V2.22656H13.6198V7.00521C13.6198 7.29167 13.6241 7.44358 13.6328 7.46094C13.6589 7.65191 13.75 7.7474 13.9062 7.7474C14.1406 7.7474 14.388 7.56076 14.6484 7.1875V2.22656H15.8333Z" fill="#DADBD9"/>
</svg>
