<svg width="34" height="43" viewBox="0 0 34 43" fill="none" xmlns="http://www.w3.org/2000/svg">
<path d="M33.0067 8.65652V42.2448H1.23248V0.7323H25.0069V8.65652H33.0067Z" fill="#CBCCCA"/>
<path d="M32.9773 8.62716L24.9775 0.702942V8.62716H32.9773Z" fill="#CBCCCA"/>
<path d="M3.8692 0.7323H1.23248V42.2448H3.8692V0.7323Z" fill="#CBCCCA"/>
<path d="M32.9773 8.62714H30.3406V42.2154H32.9773V8.62714Z" fill="#CBCCCA"/>
<path d="M20.9734 10.8843H18.7254V8.6361C18.7254 7.73311 17.9934 7.00116 17.0904 7.00116C16.1874 7.00116 15.4555 7.73311 15.4555 8.6361V10.8842H13.2074C12.3044 10.8842 11.5725 11.6161 11.5725 12.5191C11.5725 13.4221 12.3044 14.1541 13.2074 14.1541H15.4555V16.4021C15.4555 17.3051 16.1874 18.0371 17.0904 18.0371C17.9934 18.0371 18.7254 17.3051 18.7254 16.4021V14.1544H20.9734C21.8764 14.1544 22.6084 13.4224 22.6084 12.5195C22.6084 11.6165 21.8764 10.8843 20.9734 10.8843Z" fill="#5AA24C"/>
<path d="M33.6803 8.62576C33.6799 8.48707 33.6393 8.35207 33.5611 8.23553C33.5354 8.19721 33.5061 8.1617 33.4734 8.12936C33.4729 8.12883 33.4727 8.1283 33.4722 8.12777L25.4724 0.203555C25.3504 0.0829687 25.1693 0 24.9775 0H1.20312C0.814824 0 0.5 0.314824 0.5 0.703125V42.2156C0.5 42.6039 0.814824 42.9187 1.20312 42.9187H32.9773C33.3656 42.9187 33.6805 42.6039 33.6805 42.2156V8.62717C33.6805 8.62664 33.6803 8.62629 33.6803 8.62576ZM25.6807 2.38922L31.2682 7.92404H25.6807V2.38922ZM32.2742 41.5123H1.90625V1.40607H24.2744V8.62717C24.2744 9.01547 24.5892 9.33029 24.9775 9.33029H32.2742V41.5123Z" fill="#636762"/>
<path d="M14.752 16.4025C14.752 17.6917 15.8009 18.7408 17.0902 18.7408C18.3796 18.7408 19.4285 17.6919 19.4285 16.4025V14.8574H20.9734C22.2628 14.8574 23.3117 13.8085 23.3117 12.5193C23.3117 11.2302 22.2628 10.1813 20.9734 10.1813H19.4285V8.63616C19.4285 7.34698 18.3796 6.2981 17.0902 6.2981C15.8009 6.2981 14.752 7.34698 14.752 8.63616V10.1813H13.207C11.9177 10.1813 10.8688 11.2302 10.8688 12.5193C10.8688 13.8085 11.9177 14.8574 13.207 14.8574H14.752V16.4025ZM13.207 13.4512C12.6931 13.4512 12.2751 13.0332 12.2751 12.5193C12.2751 12.0055 12.6931 11.5875 13.207 11.5875H15.4551C15.8434 11.5875 16.1582 11.2727 16.1582 10.8844V8.63616C16.1582 8.12235 16.5762 7.70435 17.0902 7.70435C17.6042 7.70435 18.0222 8.12235 18.0222 8.63616V10.8844C18.0222 11.2727 18.337 11.5875 18.7253 11.5875H20.9734C21.4874 11.5875 21.9054 12.0055 21.9054 12.5193C21.9054 13.0332 21.4874 13.4512 20.9734 13.4512H18.7253C18.337 13.4512 18.0222 13.766 18.0222 14.1543V16.4025C18.0222 16.9163 17.6042 17.3345 17.0902 17.3345C16.5762 17.3345 16.1582 16.9165 16.1582 16.4025V14.1543C16.1582 13.766 15.8434 13.4512 15.4551 13.4512H13.207Z" fill="#636762"/>
<path d="M11.0885 21.4006H7.81778C7.42948 21.4006 7.11465 21.7155 7.11465 22.1038C7.11465 22.4921 7.42948 22.8069 7.81778 22.8069H11.0885C11.4768 22.8069 11.7917 22.4921 11.7917 22.1038C11.7917 21.7155 11.4768 21.4006 11.0885 21.4006Z" fill="#636762"/>
<path d="M13.8529 22.1038C13.8529 22.4921 14.1677 22.8069 14.556 22.8069H26.3627C26.751 22.8069 27.0658 22.4921 27.0658 22.1038C27.0658 21.7155 26.751 21.4006 26.3627 21.4006H14.556C14.1677 21.4006 13.8529 21.7155 13.8529 22.1038Z" fill="#636762"/>
<path d="M11.0885 24.9553H7.81778C7.42948 24.9553 7.11465 25.2701 7.11465 25.6584C7.11465 26.0467 7.42948 26.3616 7.81778 26.3616H11.0885C11.4768 26.3616 11.7917 26.0467 11.7917 25.6584C11.7917 25.2701 11.4768 24.9553 11.0885 24.9553Z" fill="#636762"/>
<path d="M26.3627 24.9553H14.556C14.1677 24.9553 13.8529 25.2701 13.8529 25.6584C13.8529 26.0467 14.1677 26.3616 14.556 26.3616H26.3627C26.751 26.3616 27.0658 26.0467 27.0658 25.6584C27.0658 25.2701 26.751 24.9553 26.3627 24.9553Z" fill="#636762"/>
<path d="M11.0885 28.5099H7.81778C7.42948 28.5099 7.11465 28.8248 7.11465 29.2131C7.11465 29.6014 7.42948 29.9162 7.81778 29.9162H11.0885C11.4768 29.9162 11.7917 29.6014 11.7917 29.2131C11.7917 28.8248 11.4768 28.5099 11.0885 28.5099Z" fill="#636762"/>
<path d="M26.3627 28.5099H14.556C14.1677 28.5099 13.8529 28.8248 13.8529 29.2131C13.8529 29.6014 14.1677 29.9162 14.556 29.9162H26.3627C26.751 29.9162 27.0658 29.6014 27.0658 29.2131C27.0658 28.8248 26.751 28.5099 26.3627 28.5099Z" fill="#636762"/>
<path d="M11.0885 32.0646H7.81778C7.42948 32.0646 7.11465 32.3794 7.11465 32.7677C7.11465 33.156 7.42948 33.4708 7.81778 33.4708H11.0885C11.4768 33.4708 11.7917 33.156 11.7917 32.7677C11.7917 32.3794 11.4768 32.0646 11.0885 32.0646Z" fill="#636762"/>
<path d="M26.3627 32.0646H14.556C14.1677 32.0646 13.8529 32.3794 13.8529 32.7677C13.8529 33.156 14.1677 33.4708 14.556 33.4708H26.3627C26.751 33.4708 27.0658 33.156 27.0658 32.7677C27.0658 32.3794 26.751 32.0646 26.3627 32.0646Z" fill="#636762"/>
</svg>
