<svg width="44" height="27" viewBox="0 0 44 27" fill="none" xmlns="http://www.w3.org/2000/svg">
<path d="M37.7605 11.4604C35.0159 11.4604 31.8949 9.84391 29.8697 6.59582C25.1268 -1.01094 18.9787 -1.50752 13.9262 6.59582C11.8998 9.84566 8.77701 11.4604 6.03535 11.4604C5.78522 30.1273 38.0217 30.9424 37.7605 11.4604Z" fill="#97CA8E"/>
<path d="M23.4748 25.7238C14.9933 26.2846 5.90193 21.4067 6.03553 11.4609C8.77771 11.4609 11.8996 9.84552 13.9263 6.59532C16.8162 1.95997 20.0664 0.138876 23.2041 0.854306C20.9207 1.3711 18.6478 3.2502 16.5631 6.59532C14.5363 9.84552 11.4144 11.4609 8.67225 11.4609C8.55271 20.3801 15.8512 25.2229 23.4748 25.7238Z" fill="#97CA8E"/>
<path d="M37.7605 11.4609C37.8976 21.6334 29.1719 26.2722 20.8381 25.7238C28.2754 25.2334 35.2469 20.5629 35.1238 11.4609C32.3799 11.4609 29.258 9.84372 27.233 6.59528C25.2045 3.33981 22.9176 1.38688 20.5674 0.854266C23.814 0.114226 27.0853 2.12868 29.8697 6.59528C31.8947 9.84372 35.0166 11.4609 37.7605 11.4609Z" fill="#97CA8E"/>
<path d="M42.4578 7.91983C40.898 6.3341 38.2169 7.1318 37.6396 9.23977L37.23 10.7358C34.6506 10.5298 32.0983 8.84092 30.4665 6.22389C27.9277 2.15209 24.9596 0 21.8833 0C18.8261 0 15.8682 2.15209 13.3296 6.22389C11.698 8.84074 9.14545 10.5298 6.56603 10.7358L6.15647 9.23977C5.5785 7.12951 2.89678 6.33551 1.33777 7.92035C0.789863 8.47846 0.5 9.20742 0.5 10.0283V14.8623C0.5 20.418 5.02004 24.9381 10.5758 24.9381H14.4036C19.243 26.9826 25.0946 26.9817 29.811 24.9381H33.2199C38.7757 24.9381 43.2957 20.418 43.2957 14.8623V10.0283C43.2959 9.20742 43.0062 8.47846 42.4578 7.91983ZM10.576 23.5318C5.79559 23.5318 1.90643 19.6427 1.90643 14.8623V10.0283C1.90643 8.16715 4.35084 7.96922 4.80014 9.61102L5.3324 11.5557C5.29689 16.5971 7.56324 20.8178 11.7417 23.5318H10.576ZM29.3965 23.5863C29.3939 23.5874 29.3914 23.5888 29.3889 23.5898C20.4951 27.5583 7.10305 23.5023 6.74428 12.1321C9.74047 11.8663 12.6706 9.93867 14.5229 6.96797C16.7914 3.32965 19.3367 1.40643 21.8833 1.40643C24.4491 1.40643 27.0045 3.32947 29.2731 6.96797C31.1258 9.93955 34.0565 11.8673 37.0535 12.1322C36.9015 18.0603 33.6167 21.2279 30.8314 22.8526C30.3693 23.1221 29.8897 23.3659 29.3965 23.5863ZM41.8896 14.8623C41.8896 19.6427 38.0005 23.5318 33.2201 23.5318H32.3918C36.3573 20.8557 38.5016 16.643 38.4635 11.556L38.9959 9.61119C39.4435 7.97537 41.8896 8.16258 41.8896 10.0283V14.8623Z" fill="#636762"/>
<path d="M30.7957 13.4733H13.0003C12.612 13.4733 12.2972 13.7881 12.2972 14.1764C12.2972 14.5647 12.612 14.8795 13.0003 14.8795H30.7957C31.184 14.8795 31.4988 14.5647 31.4988 14.1764C31.4988 13.7881 31.184 13.4733 30.7957 13.4733Z" fill="#636762"/>
<path d="M28.4722 18.5743H15.3238C14.9355 18.5743 14.6207 18.8891 14.6207 19.2774C14.6207 19.6657 14.9355 19.9805 15.3238 19.9805H28.4722C28.8605 19.9805 29.1754 19.6657 29.1754 19.2774C29.1754 18.8891 28.8605 18.5743 28.4722 18.5743Z" fill="#636762"/>
</svg>
