<svg width="39" height="40" viewBox="0 0 39 40" fill="none" xmlns="http://www.w3.org/2000/svg">
<path d="M36.3547 25.416H2.64519C1.7989 25.416 1.11288 24.7074 1.11288 23.8333V2.21585C1.11288 1.34171 1.7989 0.633118 2.64519 0.633118H36.3546C37.2009 0.633118 37.8869 1.34171 37.8869 2.21585V23.8333C37.887 24.7074 37.2009 25.416 36.3547 25.416Z" fill="#A9ACA9"/>
<path d="M4.17755 21.4592V4.58995C4.17755 4.15296 4.52064 3.79858 4.94371 3.79858H34.0562C34.4792 3.79858 34.8223 4.15296 34.8223 4.58995V21.4592C34.8223 21.8962 34.4792 22.2505 34.0562 22.2505H4.94371C4.52064 22.2505 4.17755 21.8962 4.17755 21.4592Z" fill="#5AA24C"/>
<path d="M22.4743 25.416H16.5255V38.7241H22.4743V25.416Z" fill="#A9ACA9"/>
<path d="M4.94307 25.4164H2.64461C1.79878 25.4164 1.1123 24.7074 1.1123 23.8337V2.21518C1.1123 1.34151 1.79878 0.632446 2.64461 0.632446H4.94307C4.09724 0.632446 3.41077 1.34151 3.41077 2.21518V23.8337C3.41077 24.7074 4.09724 25.4164 4.94307 25.4164Z" fill="#A9ACA9"/>
<path d="M7.24149 22.251H4.94303C4.52012 22.251 4.17688 21.8964 4.17688 21.4596V4.58928C4.17688 4.15244 4.52012 3.79791 4.94303 3.79791H7.24149C6.81858 3.79791 6.47534 4.15244 6.47534 4.58928V21.4596C6.47534 21.8964 6.81858 22.251 7.24149 22.251Z" fill="#6BB35D"/>
<path d="M37.8877 2.21518V23.8337C37.8877 24.7074 37.2012 25.4164 36.3553 25.4164H34.0569C34.9027 25.4164 35.5892 24.7074 35.5892 23.8337V2.21518C35.5892 1.34151 34.9027 0.632446 34.0569 0.632446H36.3553C37.2012 0.632446 37.8877 1.34151 37.8877 2.21518Z" fill="#A9ACA9"/>
<path d="M34.823 4.58928V21.4596C34.823 21.8964 34.4798 22.251 34.0569 22.251H31.7584C32.1813 22.251 32.5246 21.8964 32.5246 21.4596V4.58928C32.5246 4.15244 32.1813 3.79791 31.7584 3.79791H34.0569C34.4798 3.79791 34.823 4.15244 34.823 4.58928Z" fill="#407436"/>
<path d="M36.3548 0H2.64523C1.46229 0 0.5 0.993955 0.5 2.21582V23.8332C0.5 25.0551 1.46229 26.0491 2.64523 26.0491H15.9126V38.091H10.5198C10.1813 38.091 9.90683 38.3744 9.90683 38.7241C9.90683 39.0737 10.1813 39.3571 10.5198 39.3571C13.9777 39.3571 25.0325 39.3571 28.4804 39.3571C28.8189 39.3571 29.0933 39.0737 29.0933 38.7241C29.0933 38.3744 28.8189 38.091 28.4804 38.091H23.0874V26.0491H36.3548C37.5377 26.0491 38.5 25.0551 38.5 23.8332V2.21582C38.5 0.993955 37.5376 0 36.3548 0ZM21.8616 38.091H17.1386V26.0491H21.8616V38.091ZM37.2742 23.8332C37.2742 24.357 36.8618 24.7829 36.3548 24.7829C34.8842 24.7829 4.10291 24.7829 2.64538 24.7829C2.13834 24.7829 1.726 24.357 1.726 23.8332V2.21582C1.726 1.6921 2.13834 1.26619 2.64538 1.26619H36.3548C36.8618 1.26619 37.2742 1.6921 37.2742 2.21582V23.8332Z" fill="#636762"/>
<path d="M34.0563 3.16541H4.94365C4.18332 3.16541 3.56458 3.80451 3.56458 4.58986V21.4591C3.56458 22.2444 4.18332 22.8835 4.94365 22.8835H34.0561C34.8164 22.8835 35.4352 22.2444 35.4352 21.4591V4.58986C35.4353 3.80435 34.8166 3.16541 34.0563 3.16541ZM34.2095 21.4591C34.2095 21.5463 34.1407 21.6174 34.0563 21.6174H4.94365C4.85922 21.6174 4.79042 21.5463 4.79042 21.4591V4.58986C4.79042 4.50265 4.85922 4.43159 4.94365 4.43159H34.0561C34.1405 4.43159 34.2093 4.50265 34.2093 4.58986V21.4591H34.2095Z" fill="#636762"/>
<path d="M28.5321 14.109H24.1229L21.5228 9.69648C21.2723 9.27152 20.6689 9.29874 20.4527 9.73938L17.0295 16.7116L14.7928 7.38063C14.6555 6.80768 13.8965 6.7249 13.6465 7.25623L9.91668 15.1879C9.76881 15.5024 9.89568 15.8812 10.2003 16.0341C10.5049 16.1869 10.8716 16.0557 11.0195 15.7411L14.0098 9.38199L16.2358 18.6685C16.3715 19.2342 17.1193 19.3287 17.3773 18.8027L21.0481 11.3261L23.2548 15.0713C23.366 15.2599 23.5645 15.3752 23.7784 15.3752H28.5321C28.8706 15.3752 29.145 15.0917 29.145 14.7421C29.145 14.3924 28.8706 14.109 28.5321 14.109Z" fill="#636762"/>
<path d="M27.7745 17.7793H27.1105C26.7721 17.7793 26.4976 18.0628 26.4976 18.4124C26.4976 18.762 26.7721 19.0455 27.1105 19.0455H27.7745C28.113 19.0455 28.3874 18.762 28.3874 18.4124C28.3874 18.0628 28.113 17.7793 27.7745 17.7793Z" fill="#636762"/>
<path d="M32.5246 17.7793H30.0729C29.7344 17.7793 29.46 18.0628 29.46 18.4124C29.46 18.762 29.7344 19.0455 30.0729 19.0455H32.5246C32.8631 19.0455 33.1375 18.762 33.1375 18.4124C33.1375 18.0628 32.8631 17.7793 32.5246 17.7793Z" fill="#636762"/>
</svg>
