<svg width="45" height="41" viewBox="0 0 45 41" fill="none" xmlns="http://www.w3.org/2000/svg">
<path d="M33.9424 5.03882V28.1189C33.9424 30.3355 32.1459 32.132 29.9293 32.132C27.7127 32.132 25.9162 30.3355 25.9162 28.1189V5.03882H33.9424Z" fill="#DADBD9"/>
<path d="M31.2476 31.9105C30.8346 32.0546 30.3916 32.132 29.9293 32.132C27.7127 32.132 25.9162 30.3355 25.9162 28.1189V5.03882H28.5529V28.1189C28.5529 29.8732 29.6779 31.3656 31.2476 31.9105Z" fill="#CBCCCA"/>
<path d="M33.9424 5.03882V28.1189C33.9424 30.3355 32.1459 32.132 29.9293 32.132C29.467 32.132 29.024 32.0546 28.6109 31.9105C30.1807 31.3656 31.3057 29.8732 31.3057 28.1189V5.03882H33.9424Z" fill="#DADBD9"/>
<path d="M33.9424 16.9408V28.1189C33.9424 30.3355 32.1459 32.132 29.9293 32.132C27.7127 32.132 25.9162 30.3355 25.9162 28.1189V16.9408H33.9424Z" fill="#5AA24C"/>
<path d="M31.2459 31.9105C28.6301 32.8212 25.9162 30.8632 25.9162 28.1189V16.9408H28.5529V28.1189C28.5529 29.8732 29.6779 31.3638 31.2459 31.9105Z" fill="#5AA24C"/>
<path d="M33.9424 16.9408V28.1189C33.9424 30.8045 31.2896 32.8425 28.6127 31.9105C30.1806 31.3638 31.3056 29.8732 31.3056 28.1189V16.9408H33.9424Z" fill="#5AA24C"/>
<path d="M20.5531 0.703125H10.3578V5.03912H20.5531V0.703125Z" fill="#DADBD9"/>
<path d="M19.4686 5.03882V28.1189C19.4686 30.3355 17.6721 32.132 15.4555 32.132C13.2389 32.132 11.4424 30.3355 11.4424 28.1189V5.03882H19.4686Z" fill="#DADBD9"/>
<path d="M12.9945 0.702271H10.3578V5.03879H12.9945V0.702271Z" fill="#CBCCCA"/>
<path d="M16.7738 31.9105C16.3607 32.0546 15.9178 32.132 15.4555 32.132C13.2389 32.132 11.4424 30.3355 11.4424 28.1189V5.03882H14.0791V28.1189C14.0791 29.8732 15.2041 31.3656 16.7738 31.9105Z" fill="#CBCCCA"/>
<path d="M20.5531 0.702271H17.9164V5.03879H20.5531V0.702271Z" fill="#DADBD9"/>
<path d="M19.4686 5.03882V28.1189C19.4686 30.3355 17.6721 32.132 15.4555 32.132C14.9932 32.132 14.5502 32.0546 14.1371 31.9105C15.7068 31.3656 16.8318 29.8732 16.8318 28.1189V5.03882H19.4686Z" fill="#DADBD9"/>
<path d="M19.4686 21.9155V28.1188C19.4686 30.3354 17.6721 32.1319 15.4555 32.1319C13.2389 32.1319 11.4424 30.3354 11.4424 28.1188V21.9155H19.4686Z" fill="#274521"/>
<path d="M16.7721 31.9104C14.1563 32.8213 11.4424 30.8631 11.4424 28.1188V21.9155H14.0791V28.1188C14.0791 29.8731 15.2041 31.3638 16.7721 31.9104Z" fill="#274521"/>
<path d="M19.4685 21.9155V28.1188C19.4685 30.8044 16.8158 32.8424 14.1389 31.9104C15.7068 31.3638 16.8318 29.8731 16.8318 28.1188V21.9155H19.4685Z" fill="#274521"/>
<path d="M35.0269 0.703125H24.8316V5.03912H35.0269V0.703125Z" fill="#DADBD9"/>
<path d="M27.4684 0.702271H24.8316V5.03879H27.4684V0.702271Z" fill="#CBCCCA"/>
<path d="M35.0269 0.702271H32.3902V5.03879H35.0269V0.702271Z" fill="#DADBD9"/>
<path d="M42.2709 40.0121H2.22652C1.66139 40.0121 1.20312 39.554 1.20312 38.9887V37.3931C1.20312 36.828 1.66121 36.3697 2.22652 36.3697H42.2709C42.836 36.3697 43.2943 36.8278 43.2943 37.3931V38.9887C43.2943 39.5538 42.8362 40.0121 42.2709 40.0121Z" fill="#939793"/>
<path d="M44.1816 13.0787H42.5996V10.2561C42.5996 9.86783 42.2848 9.55301 41.8965 9.55301C41.5082 9.55301 41.1934 9.86783 41.1934 10.2561V13.0788H34.646V5.74207H35.027C35.4153 5.74207 35.7301 5.42725 35.7301 5.03895V0.703125C35.7301 0.314824 35.4153 0 35.027 0H24.8316C24.4433 0 24.1285 0.314824 24.1285 0.703125V5.03895C24.1285 5.42725 24.4433 5.74207 24.8316 5.74207H25.2126V13.0787H20.1722V5.74207H20.5531C20.9414 5.74207 21.2563 5.42725 21.2563 5.03895V0.703125C21.2563 0.314824 20.9414 0 20.5531 0H10.3578C9.96951 0 9.65469 0.314824 9.65469 0.703125V5.03895C9.65469 5.42725 9.96951 5.74207 10.3578 5.74207H10.7387V13.0787H4.19141V10.2561C4.19141 9.86783 3.87658 9.55301 3.48828 9.55301C3.09998 9.55301 2.78516 9.86783 2.78516 10.2561V13.0788H1.20312C0.814824 13.0788 0.5 13.3937 0.5 13.782C0.5 14.1703 0.814824 14.4851 1.20312 14.4851H2.78516V35.6667H2.22652C1.27449 35.6667 0.5 36.4412 0.5 37.3932V38.9886C0.5 39.9407 1.27449 40.7152 2.22652 40.7152H42.2709C43.2229 40.7152 43.9974 39.9407 43.9974 38.9886V37.3932C43.9974 36.5537 43.3948 35.853 42.5996 35.6989V14.4849H44.1816C44.5699 14.4849 44.8848 14.1701 44.8848 13.7818C44.8848 13.3935 44.5699 13.0787 44.1816 13.0787ZM25.5348 1.40625H34.3238V4.33582C32.6613 4.33582 27.1934 4.33582 25.5348 4.33582V1.40625ZM26.6188 16.2376V14.4849H33.2398V16.2376H26.6188ZM33.2398 17.6439V28.1181C33.2398 29.9436 31.7548 31.4286 29.9293 31.4286C28.1038 31.4286 26.6188 29.9436 26.6188 28.1181V17.6439H33.2398ZM26.6188 13.0787V5.74207H33.2398V13.0787H26.6188ZM11.0609 1.40625H19.85V4.33582C18.1915 4.33582 12.7235 4.33582 11.0609 4.33582V1.40625ZM12.145 21.2126V14.4849H18.766V21.2124H12.145V21.2126ZM18.766 22.6188V28.1181C18.766 29.9436 17.281 31.4286 15.4555 31.4286C13.63 31.4286 12.145 29.9436 12.145 28.1181V22.6188H18.766ZM12.145 13.0787V5.74207H18.766V13.0787H12.145ZM4.19141 14.4849H10.7387V28.1181C10.7387 30.719 12.8546 32.8349 15.4555 32.8349C18.0563 32.8349 20.1722 30.719 20.1722 28.1181V14.4849H25.2126V28.1181C25.2126 30.719 27.3284 32.8349 29.9293 32.8349C32.5302 32.8349 34.646 30.719 34.646 28.1181V14.4849H41.1934V35.6665H4.19141V14.4849ZM42.5912 38.9886C42.5912 39.1653 42.4476 39.3089 42.2709 39.3089H2.22652C2.04986 39.3089 1.90625 39.1653 1.90625 38.9886V37.3932C1.90625 37.2166 2.04986 37.073 2.22652 37.073H42.2709C42.4476 37.073 42.5912 37.2166 42.5912 37.3932V38.9886Z" fill="#636762"/>
<path d="M30.8956 21.7404C31.2839 21.7404 31.5987 21.4256 31.5987 21.0373V20.0999C31.5987 19.7116 31.2839 19.3967 30.8956 19.3967C30.5073 19.3967 30.1924 19.7116 30.1924 20.0999V21.0373C30.1924 21.4256 30.5073 21.7404 30.8956 21.7404Z" fill="#636762"/>
<path d="M30.8956 26.3108C31.2839 26.3108 31.5987 25.996 31.5987 25.6077V23.6741C31.5987 23.2858 31.2839 22.9709 30.8956 22.9709C30.5073 22.9709 30.1924 23.2858 30.1924 23.6741V25.6077C30.1924 25.996 30.5073 26.3108 30.8956 26.3108Z" fill="#636762"/>
</svg>
